<?xml version="1.0" encoding="UTF-8" standalone="no"?>
<!-- Created with Inkscape (http://www.inkscape.org/) -->

<svg
   xmlns:dc="http://purl.org/dc/elements/1.1/"
   xmlns:cc="http://creativecommons.org/ns#"
   xmlns:rdf="http://www.w3.org/1999/02/22-rdf-syntax-ns#"
   xmlns:svg="http://www.w3.org/2000/svg"
   xmlns="http://www.w3.org/2000/svg"
   version="1.1"
   width="352.49655"
   height="319.64001"
   id="svg3099">
  <defs
     id="defs3101" />
  <metadata
     id="metadata3104">
    <rdf:RDF>
      <cc:Work
         rdf:about="">
        <dc:format>image/svg+xml</dc:format>
        <dc:type
           rdf:resource="http://purl.org/dc/dcmitype/StillImage" />
        <dc:title></dc:title>
      </cc:Work>
    </rdf:RDF>
  </metadata>
  <g
     transform="translate(-197.03744,-195.39933)"
     id="layer1">
    <path
       d="m 487.69844,349.72833 c 0,79.709 -64.621,144.328 -144.334,144.328 -79.707,0 -144.327,-64.619 -144.327,-144.328 0,-79.712 64.619,-144.329 144.326,-144.329 79.714,0 144.335,64.617 144.335,144.329 z"
       id="path13"
       style="fill:#b3b3b3" />
    <circle
       cx="154.37601"
       cy="151.108"
       r="137.55"
       transform="translate(195.77244,205.39933)"
       id="circle15"
       style="fill:#8f0000" />
    <path
       d="m 350.62544,286.77133 c 0,0 65.544,24.929 106.87,34.849 14.09,3.382 -0.563,-1.689 -0.563,-1.689 l -6.764,34.371 -136.924,-46.205 37.381,-21.326 z"
       id="path17"
       style="fill:#b3b3b3" />
    <path
       d="M 478.79444,320.19033"
       id="path19"
       style="fill:none;stroke:#666666;stroke-width:1.04149997" />
    <path
       d="M 354.10644,283.56233"
       id="path21"
       style="fill:none;stroke:#666666;stroke-width:1.04149997" />
    <polygon
       points="199.918,98.06 203.021,130.96 226.175,106.146 232.1,78.35 "
       transform="translate(195.77244,205.39933)"
       id="polygon23"
       style="fill:#666666" />
    <polygon
       points="126.581,67.896 160.335,54.557 154.853,81.372 130.634,103.71 "
       transform="translate(195.77244,205.39933)"
       id="polygon25"
       style="fill:#666666" />
    <path
       d="m 320.56244,433.49533 20.217,36.675 40.13,-39.284 c 0,0 -11.879,-41.14 13.623,-49.393 7.326,-2.37 -62.981,18.525 -62.981,18.525 0.002,0.002 -10.989,33.477 -10.989,33.477 z"
       id="path27"
       style="fill:#666666" />
    <polygon
       points="277.394,117.643 298.735,100.554 283.682,240.167 254.498,299.64 "
       transform="translate(195.77244,205.39933)"
       id="polygon29"
       style="fill:#666666" />
    <path
       d="m 500.50544,345.35733 c 8.613,1.065 20.771,4.184 28.674,13.064 37.807,42.509 -17.197,86.458 -17.197,86.458 l -43.349,-73.336 21.679,-26.674 c 0,-10e-4 4.251,-0.243 10.193,0.488"
       id="path31"
       style="fill:#b3b3b3" />
    <path
       d="m 258.27144,322.50733 c 0,0 19.754,-24.074 45.771,-25.065 11.468,-0.431 2.681,20.567 2.681,20.567 l -8.928,12.356 -39.524,-7.858 z"
       id="path33"
       style="fill:#b3b3b3" />
    <path
       d="m 509.76344,386.77433 c -14.122,-17.62 -34.971,-16.126 -41.13,-15.231 l 6.625,-46.797 c 0,0 -9.922,-2.441 -42.956,-12.746 l -2.582,32.177 -30.642,-10.256 3.762,-31.783 c -0.092,0.12 -37.166,-13.449 -37.289,-13.336 l -2.773,32.968 -36.373,-12.661 2.84,-31.97 -34.343,-11.134 1.909,48.466 c -8.958,-5.902 -21.725,-9.051 -35.34,4.56 -16.879,16.876 -10.325,51.265 12.739,62.095 11.946,5.608 19.998,7.042 25.367,6.844 l 2.111,56.157 c 0,0 15.939,12.861 39.09,26.043 -4.05,-12.14 -12.275,-43.244 4.249,-56.857 17.783,-14.641 47.531,-16.188 64.627,18.578 14.049,28.564 -1.143,51.387 -9.226,60.606 25.399,6.722 49.841,12.542 49.841,12.542 l 8.101,-58.893 c 6.404,3.488 23.592,11.923 35.459,8.934 34.332,-8.664 33.1,-46.886 15.934,-68.306 z"
       id="path35"
       style="fill:#ffffff" />
    <polygon
       points="207.068,96.739 169.78,83.403 197.973,66.922 232.1,78.35 "
       transform="translate(195.77244,205.39933)"
       id="polygon37"
       style="fill:#b3b3b3" />
    <polygon
       points="133.474,71.74 99.13,60.606 131.743,44.754 160.335,54.557 "
       transform="translate(195.77244,205.39933)"
       id="polygon39"
       style="fill:#b3b3b3" />
    <polygon
       points="279.486,120.981 236.53,106.601 262.921,88.668 298.735,100.554 "
       transform="translate(195.77244,205.39933)"
       id="polygon41"
       style="fill:#b3b3b3" />
    <path
       d="M 548.21644,308.65933"
       id="path43"
       style="fill:none;stroke:#404040;stroke-width:2.63509989" />
    <path
       d="M 314.93744,244.42233"
       id="path45"
       style="fill:none;stroke:#404040;stroke-width:2.63509989" />
  </g>
</svg>
