<?xml version="1.0" encoding="UTF-8" standalone="no"?>
<!-- Created with Inkscape (http://www.inkscape.org/) -->

<svg
   width="690.75mm"
   height="184mm"
   viewBox="0 0 690.75 184"
   version="1.1"
   id="svg1"
   inkscape:export-filename="bitmap.svg"
   inkscape:export-xdpi="96"
   inkscape:export-ydpi="96"
   inkscape:version="1.4.2 (ebf0e940d0, 2025-05-08)"
   sodipodi:docname="wlm-horizontal.svg"
   xmlns:inkscape="http://www.inkscape.org/namespaces/inkscape"
   xmlns:sodipodi="http://sodipodi.sourceforge.net/DTD/sodipodi-0.dtd"
   xmlns="http://www.w3.org/2000/svg"
   xmlns:svg="http://www.w3.org/2000/svg">
  <sodipodi:namedview
     id="namedview1"
     pagecolor="#ffffff"
     bordercolor="#000000"
     borderopacity="0.25"
     inkscape:showpageshadow="2"
     inkscape:pageopacity="0.0"
     inkscape:pagecheckerboard="0"
     inkscape:deskcolor="#d1d1d1"
     inkscape:document-units="mm"
     inkscape:zoom="0.24810255"
     inkscape:cx="1632.3895"
     inkscape:cy="259.97314"
     inkscape:window-width="1362"
     inkscape:window-height="738"
     inkscape:window-x="0"
     inkscape:window-y="0"
     inkscape:window-maximized="1"
     inkscape:current-layer="text2" />
  <defs
     id="defs1">
    <rect
       x="826.51697"
       y="79.801636"
       width="2049.1919"
       height="265.05545"
       id="rect3" />
  </defs>
  <g
     inkscape:label="Layer 1"
     inkscape:groupmode="layer"
     id="layer1">
    <g
       id="g2"
       transform="matrix(2.1799693,0,0,2.1704321,-536.53635,-63.994181)">
      <path
         id="circle3011"
         style="fill:#b3b3b3;stroke-width:0.264583"
         d="M 327.71292,70.987709 A 38.179375,38.179375 0 0 1 289.53354,109.16708 38.179375,38.179375 0 0 1 251.35417,70.987709 38.179375,38.179375 0 0 1 289.53354,32.808334 38.179375,38.179375 0 0 1 327.71292,70.987709 Z" />
      <path
         id="circle3013"
         style="fill:#8f0000;stroke-width:0.264583"
         d="M 327.73937,72.760417 A 36.406669,36.406669 0 0 1 291.3327,109.16708 36.406669,36.406669 0 0 1 254.92604,72.760417 36.406669,36.406669 0 0 1 291.3327,36.353749 36.406669,36.406669 0 0 1 327.73937,72.760417 Z" />
      <path
         d="m 267.02808,63.843959 c 7.00088,-8.46402 20.24327,-9.773708 10.44575,2.010834 m 40.3225,6.334124 1.71979,-8.707437 c -10.94581,-2.656417 -28.04583,-9.159875 -28.04583,-9.159875 l -9.74725,5.820833"
         id="path3015"
         inkscape:connector-curvature="0"
         style="fill:#b3b3b3;stroke-width:0.264583" />
      <path
         d="m 282.575,91.360626 6.27062,11.482914 10.63625,-10.398123 c 0,0 -3.14854,-10.874375 3.59834,-13.043958 m 20.79625,-15.478125 5.66208,-4.524375 -3.99521,36.935833 -7.72583,15.742708 m -33.84021,-61.330416 8.94292,-3.529541 -1.45521,7.096125 -6.42938,5.918729 m 19.15584,7.196666 6.13833,-6.561666 1.56104,-7.355417 -8.51958,5.214938"
         id="path3017"
         inkscape:connector-curvature="0"
         style="fill:#666666;stroke-width:0.264583" />
      <path
         d="m 313.055,60.986459 6.985,-4.738687 9.47208,3.151187 -5.08,5.3975 m -47.73083,-15.972895 8.61748,-4.193646 7.56708,2.592916 -7.09083,4.548188 m 9.60437,3.085042 7.46125,-4.360334 9.02229,3.024188 -6.61458,4.863041 m 17.40958,18.372667 5.715,-7.064375 c 3.51896,-0.105833 7.91104,0.899583 10.29229,3.571875 9.9748,11.297708 -4.55083,22.886458 -4.55083,22.886458"
         id="path3019"
         inkscape:connector-curvature="0"
         style="fill:#b3b3b3;stroke-width:0.264583" />
      <g
         id="g1">
        <path
           d="m 295.40729,54.856064 -0.74083,8.723312 -9.63084,-3.360208 0.76729,-8.448146 -9.09372,-2.944813 0.49477,12.821709 c -2.36009,-1.561042 -5.73882,-2.407709 -9.3398,1.217083 -4.46616,4.445 -2.73314,13.546666 3.3708,16.430625 3.15912,1.481666 5.29166,1.852083 6.70983,1.799166 l 0.55562,14.869584 c 0,0 4.20688,3.386666 10.34521,6.879164 -1.05833,-3.201456 -3.25437,-11.429998 1.11125,-15.054789 4.70959,-3.862917 12.59417,-4.259792 17.11854,4.92125 3.70417,7.567079 -0.3175,13.599579 -2.43416,16.033749 6.69396,1.77271 13.17625,3.33375 13.17625,3.33375 l 2.14312,-15.583958 c 1.69334,0.926042 6.24417,3.148542 9.39271,2.354792 9.07521,-2.301875 8.75771,-12.408958 4.20688,-18.071042 -3.73063,-4.656666 -9.26042,-4.259791 -10.87438,-4.021666 l 1.74625,-11.959167 -11.37708,-3.81 -0.66146,8.519584 -8.12271,-2.69875 1.00542,-8.421688"
           id="path3021"
           inkscape:connector-curvature="0"
           style="fill:#ffffff;stroke-width:0.264583" />
      </g>
    </g>
    <g
       id="text2"
       style="font-weight:bold;font-size:42.6667px;font-family:Arial;-inkscape-font-specification:'Arial Bold';white-space:pre;inline-size:309.656;fill:#4c4c4e"
       transform="matrix(0.26458333,0,0,0.26458333,258.89786,36.877546)"
       aria-label="VİKİ abidələri">
      <g
         id="text8"
         style="font-size:192px;fill:#8f0000"
         aria-label="sevir Azərbaycan">
        <path
           d="m -109.57698,370.21832 26.437499,-4.03125 q 1.6875,7.6875 6.84375,11.71875 5.15625,3.9375 14.4375,3.9375 10.21875,0 15.375,-3.75 3.46875,-2.625 3.46875,-7.03125 0,-3 -1.875,-4.96875 -1.96875,-1.875 -8.8125,-3.46875 -31.875,-7.03125 -40.40625,-12.84375 -11.812499,-8.0625 -11.812499,-22.40625 0,-12.9375 10.218749,-21.75 10.21875,-8.8125 31.6875,-8.8125 20.4375,0 30.375,6.65625 9.9375,6.65625 13.6875,19.6875 l -24.84375,4.59375 q -1.59375,-5.8125 -6.09375,-8.90625 -4.40625,-3.09375 -12.65625,-3.09375 -10.40625,0 -14.90625,2.90625 -3,2.0625 -3,5.34375 0,2.8125 2.625,4.78125 3.5625,2.625 24.5625,7.40625 21.09375,4.78125 29.4375,11.71875 8.25,7.03125 8.25,19.59375 0,13.6875 -11.4375,23.53125 -11.4375,9.84375 -33.84375,9.84375 -20.34375,0 -32.25,-8.25 -11.812499,-8.25 -15.468749,-22.40625 z m 173.718749,-3.28125 26.25,4.40625 q -5.0625,14.4375 -16.03125,22.03125 -10.875,7.5 -27.28125,7.5 -25.96875,0 -38.4374996,-16.96875 -9.84375,-13.59375 -9.84375,-34.3125 0,-24.75 12.9374996,-38.71875 12.9375,-14.0625 32.71875,-14.0625 22.21875,0 35.0625,14.71875 12.84375,14.625 12.28125,44.90625 h -66 q 0.28125,11.71875 6.375,18.28125 6.09375,6.46875 15.1875,6.46875 6.1875,0 10.40625,-3.375 4.21875,-3.375 6.375,-10.875 z m 1.5,-26.625 q -0.28125,-11.4375 -5.90625,-17.34375 -5.625,-6 -13.6875,-6 -8.625,0 -14.25,6.28125 -5.625,6.28125 -5.53125,17.0625 z m 75.000001,58.3125 -40.125,-99.5625 h 27.65625 l 18.75,50.8125 5.4375,16.96875 q 2.15625,-6.46875 2.71875,-8.53125 1.3125,-4.21875 2.8125,-8.4375 l 18.9375,-50.8125 h 27.09375 l -39.5625,99.5625 z m 79.40625,-113.0625 v -24.375 h 26.34375 v 24.375 z m 0,113.0625 v -99.5625 h 26.34375 v 99.5625 z m 78.5625,0 h -26.34375 v -99.5625 h 24.46875 v 14.15625 q 6.28125,-10.03125 11.25,-13.21875 5.0625,-3.1875 11.4375,-3.1875 9,0 17.34375,4.96875 l -8.15625,22.96875 q -6.65625,-4.3125 -12.375,-4.3125 -5.53125,0 -9.375,3.09375 -3.84375,3 -6.09375,10.96875 -2.15625,7.96875 -2.15625,33.375 z"
           id="path12" />
        <path
           style="font-style:italic;font-weight:800;font-family:'Playfair Display';-inkscape-font-specification:'Playfair Display Ultra-Bold Italic'"
           d="m 398.04102,372.32057 q -5.568,7.872 -5.568,12.672 0.192,4.8 4.8,7.104 4.8,2.112 12.096,2.688 l -0.768,3.84 q -9.024,-0.384 -14.976,-0.384 -5.952,-0.192 -11.136,-0.192 -4.224,0 -6.912,0.192 -2.88,0 -5.952,0.384 l 0.768,-3.84 q 3.648,-0.96 6.72,-3.072 3.072,-2.304 6.912,-6.72 3.648,-4.608 9.024,-11.904 l 79.104,-111.36 q 2.88,0.384 6.144,0.384 3.456,0 5.952,-0.384 l 7.68,120.768 q 0.576,6.912 3.456,9.6 3.072,2.496 5.952,2.688 l -0.768,3.84 q -5.184,-0.384 -13.824,-0.384 -8.64,-0.192 -16.32,-0.192 -9.216,0 -17.472,0.192 -8.256,0 -13.248,0.384 l 0.768,-3.84 q 9.216,-0.384 13.056,-3.264 4.032,-3.072 3.456,-12.864 l -4.608,-86.208 8.448,-9.024 z m 18.624,-28.992 h 56.064 l -1.536,3.84 h -57.984 z m 104.83186,43.584 q 4.608,-1.92 9.024,-4.992 4.608,-3.072 8.832,-5.952 4.224,-3.072 8.064,-4.992 4.032,-2.112 7.872,-2.112 4.608,0 7.296,1.536 2.88,1.536 5.376,3.072 2.496,1.536 5.952,1.536 3.072,0 4.416,-1.728 1.536,-1.92 1.536,-4.032 0,-4.224 -3.072,-6.528 -3.072,-2.496 -6.72,-3.456 l 1.152,-2.88 q 10.752,2.304 15.744,7.488 4.992,5.184 4.992,13.632 0,6.336 -2.88,11.712 -2.688,5.376 -8.256,8.64 -5.376,3.072 -13.824,3.072 -6.144,0 -10.944,-1.728 -4.8,-1.536 -9.024,-3.648 -4.224,-2.304 -9.024,-3.84 -4.8,-1.728 -11.136,-1.728 -4.992,0 -9.216,1.728 -4.032,1.728 -8.064,6.912 h -5.952 l 95.616,-89.088 q -5.376,2.304 -10.752,5.76 -5.184,3.456 -9.984,7.104 -4.8,3.456 -9.408,5.952 -4.608,2.304 -8.64,2.304 -4.608,0 -7.488,-1.536 -2.88,-1.536 -5.184,-3.072 -2.304,-1.536 -5.568,-1.536 -3.072,0 -4.608,1.728 -1.536,1.536 -1.536,4.032 0,3.648 2.496,5.952 2.496,2.112 7.296,4.032 l -1.152,2.88 q -9.984,-2.304 -15.36,-7.296 -5.376,-4.992 -5.376,-13.056 0,-6.336 3.072,-12.096 3.264,-5.76 9.792,-9.408 6.528,-3.648 16.32,-3.648 6.336,0 10.944,1.536 4.608,1.536 8.64,3.648 4.032,2.112 8.448,3.648 4.608,1.536 10.56,1.536 5.76,0 9.792,-1.92 4.032,-1.92 7.872,-6.72 h 5.76 z m 145.53587,-31.68 q -1.728,-4.032 -5.376,-7.104 -3.648,-3.072 -8.256,-3.072 -5.952,0 -10.944,5.376 -4.8,5.184 -7.68,14.208 -2.688,9.024 -2.688,20.16 0,12.672 5.76,12.672 3.648,0 7.68,-4.224 4.032,-4.416 7.872,-11.712 4.032,-7.488 7.296,-16.512 3.264,-9.024 4.992,-18.24 1.92,-9.408 1.92,-17.664 0,-10.368 -3.456,-15.168 -3.456,-4.8 -10.944,-4.8 -6.72,0 -14.208,3.84 -7.488,3.84 -14.208,10.752 l -3.072,-1.536 q 7.872,-12.096 20.352,-18.816 12.48,-6.912 26.304,-6.912 15.744,0 23.808,8.832 8.256,8.832 8.256,25.728 0,14.016 -5.184,26.688 -5.184,12.672 -14.208,22.464 -9.024,9.792 -20.928,15.552 -11.904,5.568 -25.152,5.568 -13.248,0 -20.928,-6.144 -7.68,-6.144 -7.68,-18.432 0,-10.176 4.992,-18.624 5.184,-8.64 14.016,-13.632 8.832,-5.184 19.968,-5.184 9.024,0 14.784,3.648 5.76,3.456 8.448,9.6 z m 71.42398,43.392 h -30.528 l 23.424,-83.136 q 1.344,-4.8 0.768,-6.72 -0.384,-2.112 -2.688,-2.112 -3.264,0 -5.952,3.072 -2.688,2.88 -5.568,10.56 l -4.032,10.752 h -3.648 l 5.376,-14.784 q 2.688,-7.488 6.72,-11.712 4.032,-4.416 9.408,-6.144 5.376,-1.92 11.328,-1.92 6.336,0 9.792,2.496 3.648,2.304 4.992,6.336 1.536,4.032 1.344,8.832 0,4.608 -1.152,9.216 z m 49.152,-98.112 q -3.84,0 -8.064,1.728 -4.224,1.728 -8.832,7.104 -4.608,5.376 -9.792,15.936 -4.992,10.368 -10.56,27.84 -5.568,17.28 -11.52,43.2 l 4.224,-26.496 q 5.952,-21.696 10.752,-35.712 4.992,-14.208 9.792,-22.464 4.992,-8.448 10.752,-11.712 5.76,-3.456 13.248,-3.456 8.256,0 12.672,4.992 4.416,4.8 4.416,12.096 0,5.76 -2.688,10.944 -2.496,4.992 -7.104,8.064 -4.416,2.88 -10.176,2.88 -6.336,0 -9.792,-3.264 -3.264,-3.264 -3.264,-9.6 0,-5.184 2.496,-9.6 2.496,-4.608 6.72,-7.68 4.224,-3.264 9.216,-4.224 -0.576,-0.192 -1.152,-0.384 -0.576,-0.192 -1.344,-0.192 z m 76.79986,7.488 q -3.456,0 -7.488,4.224 -3.84,4.032 -7.68,11.52 -3.84,7.296 -7.296,16.512 -3.456,9.216 -5.952,19.584 l 3.648,-19.2 q 5.76,-15.552 11.328,-25.344 5.568,-9.792 11.904,-14.208 6.336,-4.608 13.824,-4.608 12.672,0 18.816,7.872 6.336,7.872 6.336,22.656 0,8.832 -2.688,19.008 -2.688,10.176 -7.872,19.968 -4.992,9.792 -12.288,17.856 -7.296,7.872 -16.896,12.672 -9.408,4.8 -21.12,4.8 -5.568,0 -9.984,-1.92 -4.224,-1.92 -6.528,-4.992 l 1.344,-2.688 q 1.728,1.92 3.648,2.88 2.112,0.768 4.608,0.768 5.376,0 10.56,-4.8 5.376,-4.8 9.792,-12.864 4.608,-8.064 8.064,-17.856 3.648,-9.984 5.568,-20.16 1.92,-10.368 1.92,-19.584 0,-7.104 -1.536,-9.6 -1.344,-2.496 -4.032,-2.496 z m -38.016,87.168 q -6.912,-0.96 -14.784,1.344 -7.872,2.112 -14.976,5.184 l -2.88,-1.344 q 1.344,-2.688 2.496,-5.376 0.96,-2.88 1.728,-5.952 l 34.944,-118.464 q 1.728,-6.528 -0.576,-9.6 -2.112,-3.072 -11.52,-3.072 l 1.152,-4.032 q 14.784,-0.192 26.112,-2.112 11.328,-2.112 21.888,-5.76 z m 116.92815,-5.568 q 2.304,0 5.184,-2.304 2.88,-2.496 5.952,-7.488 3.072,-4.992 6.336,-12.864 3.264,-7.872 6.336,-19.008 l -4.8,20.736 q -3.84,12.288 -9.024,19.584 -5.184,7.104 -11.52,10.176 -6.144,2.88 -13.056,2.88 -11.52,0 -17.088,-6.336 -5.568,-6.336 -5.568,-17.472 0,-10.752 3.648,-22.08 3.648,-11.52 9.792,-21.888 6.336,-10.56 14.016,-18.816 7.872,-8.448 16.32,-13.248 8.64,-4.992 16.896,-4.992 6.336,0 9.6,4.416 3.456,4.416 2.304,14.592 l -2.112,1.152 q 0.96,-5.952 -0.384,-8.832 -1.152,-3.072 -4.224,-3.072 -3.648,0 -8.064,4.416 -4.416,4.224 -9.024,11.712 -4.416,7.296 -8.256,16.896 -3.648,9.408 -5.952,19.968 -2.304,10.56 -2.304,20.736 0,5.952 1.152,8.64 1.152,2.496 3.84,2.496 z m 38.016,-90.24 q 9.408,-0.192 16.704,-0.768 7.48796,-0.768 14.59196,-2.112 l -25.53596,85.824 q -0.768,2.688 -0.96,4.8 0,1.92 0.768,3.072 0.96,0.96 2.688,0.96 2.112,0 4.992,-2.496 2.88,-2.496 6.14396,-11.136 l 3.648,-9.984 h 3.648 l -4.8,14.016 q -2.688,7.872 -7.10396,12.288 -4.416,4.224 -9.408,5.76 -4.992,1.728 -9.984,1.728 -10.752,0 -15.36,-6.336 -2.88,-4.224 -2.88,-10.56 0,-6.336 2.496,-14.976 z m 95.42396,86.208 -23.04,26.304 -15.744,-96.192 q -0.768,-4.992 -1.728,-6.72 -0.96,-1.92 -2.688,-1.92 -2.112,0 -3.84,2.496 -1.536,2.304 -4.608,10.752 l -3.84,9.984 h -3.648 l 4.8,-14.016 q 4.032,-11.712 10.176,-15.744 6.336,-4.032 14.208,-4.032 8.256,0 13.632,4.608 5.376,4.416 7.104,17.28 z m -47.04,39.552 q 9.024,-4.224 18.624,-11.904 9.792,-7.488 19.968,-20.352 10.368,-13.056 18.048,-27.648 7.872,-14.592 11.712,-27.456 -5.184,-2.88 -9.6,-6.912 -4.224,-4.224 -6.72,-9.216 -2.496,-5.184 -2.496,-10.752 0,-6.72 3.648,-10.56 3.84,-3.84 10.176,-3.84 7.296,0 10.56,4.8 3.264,4.8 3.264,13.248 0,8.832 -3.072,19.584 -3.072,10.56 -8.448,21.888 -5.184,11.328 -12.096,22.08 -6.72,10.752 -14.208,19.776 -7.104,8.64 -15.168,15.36 -7.872,6.912 -16.512,11.712 -8.448,4.992 -17.088,7.68 -3.648,1.152 -6.72,1.536 -3.264,0.576 -5.76,0.576 -6.912,0 -10.75201,-3.072 -3.84,-3.072 -3.84,-8.64 0,-5.376 4.032,-9.216 3.84001,-3.648 10.36801,-3.648 6.528,0 11.904,3.84 5.568,3.84 10.176,11.136 z m 150.3359,-124.8 q -7.104,0 -14.016,6.144 -6.72,5.952 -12.096,16.128 -5.376,9.984 -8.64,22.656 -3.072,12.48 -3.072,25.536 0,10.368 4.032,14.976 4.224,4.416 10.944,4.416 5.952,0 11.904,-3.456 6.144,-3.456 12.288,-12.672 l 3.84,1.536 q -3.84,6.336 -9.984,12.288 -5.952,5.952 -14.208,9.792 -8.064,3.648 -18.624,3.648 -14.016,0 -23.232,-7.296 -9.216,-7.296 -9.216,-22.656 0,-9.792 3.072,-20.16 3.072,-10.368 8.832,-20.16 5.952,-9.792 14.208,-17.472 8.256,-7.872 18.816,-12.48 10.56,-4.608 23.04,-4.608 11.328,0 17.664,5.76 6.528,5.568 6.528,13.44 0,5.76 -2.88,11.136 -2.688,5.184 -7.488,8.64 -4.608,3.456 -10.368,3.456 -4.8,0 -8.448,-3.072 -3.648,-3.264 -3.648,-9.216 0,-8.64 5.568,-14.976 5.76,-6.336 13.056,-8.256 -1.536,-1.536 -3.456,-2.304 -1.728,-0.768 -4.416,-0.768 z m 56.4482,89.28 q 2.304,0 5.184,-2.304 2.88,-2.496 5.952,-7.488 3.072,-4.992 6.336,-12.864 3.264,-7.872 6.336,-19.008 l -4.8,20.736 q -3.84,12.288 -9.024,19.584 -5.184,7.104 -11.52,10.176 -6.144,2.88 -13.056,2.88 -11.52,0 -17.088,-6.336 -5.568,-6.336 -5.568,-17.472 0,-10.752 3.648,-22.08 3.648,-11.52 9.792,-21.888 6.336,-10.56 14.016,-18.816 7.872,-8.448 16.32,-13.248 8.64,-4.992 16.896,-4.992 6.336,0 9.6,4.416 3.456,4.416 2.304,14.592 l -2.112,1.152 q 0.96,-5.952 -0.384,-8.832 -1.152,-3.072 -4.224,-3.072 -3.648,0 -8.064,4.416 -4.416,4.224 -9.024,11.712 -4.416,7.296 -8.256,16.896 -3.648,9.408 -5.952,19.968 -2.304,10.56 -2.304,20.736 0,5.952 1.152,8.64 1.152,2.496 3.84,2.496 z m 38.016,-90.24 q 9.408,-0.192 16.704,-0.768 7.488,-0.768 14.592,-2.112 l -25.536,85.824 q -0.768,2.688 -0.96,4.8 0,1.92 0.768,3.072 0.96,0.96 2.688,0.96 2.112,0 4.992,-2.496 2.88,-2.496 6.144,-11.136 l 3.648,-9.984 h 3.648 l -4.8,14.016 q -2.688,7.872 -7.104,12.288 -4.416,4.224 -9.408,5.76 -4.992,1.728 -9.984,1.728 -10.752,0 -15.36,-6.336 -2.88,-4.224 -2.88,-10.56 0,-6.336 2.496,-14.976 z m 67.2,99.264 h -30.528 l 23.424,-83.136 q 0.96,-2.88 1.152,-4.8 0.192,-1.92 -0.576,-2.88 -0.576,-1.152 -2.496,-1.152 -3.264,0 -5.952,2.88 -2.496,2.88 -5.568,10.752 l -4.032,10.752 h -3.648 l 5.376,-14.784 q 3.648,-10.56 9.984,-15.168 6.336,-4.608 15.552,-4.608 7.104,0 11.136,2.496 4.224,2.304 5.76,6.336 1.536,4.032 1.344,8.832 -0.192,4.608 -1.344,9.216 z m 5.376,-29.952 q 7.68,-22.272 14.208,-36.288 6.528,-14.016 12.672,-21.888 6.336,-8.064 12.864,-10.944 6.72,-3.072 14.208,-3.072 9.408,0 13.632,4.032 4.224,3.84 4.416,10.56 0.192,6.528 -2.496,14.4 l -19.008,56.832 q -1.728,5.376 -0.576,7.104 1.152,1.728 3.072,1.728 2.112,0 4.992,-2.304 2.88,-2.496 6.144,-11.328 l 3.648,-9.984 h 3.648 l -4.8,14.016 q -2.688,8.064 -7.104,12.288 -4.224,4.224 -9.408,5.76 -4.992,1.728 -9.984,1.728 -5.76,0 -9.984,-1.728 -4.032,-1.728 -6.336,-4.992 -2.688,-3.84 -2.88,-9.792 0,-5.952 3.072,-15.36 l 16.896,-50.688 q 1.152,-3.264 1.536,-5.76 0.384,-2.688 -0.192,-4.224 -0.576,-1.536 -2.496,-1.536 -3.456,0 -7.872,4.992 -4.416,4.992 -9.216,13.632 -4.8,8.64 -9.792,19.968 -4.992,11.328 -9.6,24.192 -4.416,12.672 -7.68,25.536 z"
           id="path13" />
      </g>
      <g
         id="text3"
         style="font-style:italic;font-size:192px;font-family:'Linux Libertine O';-inkscape-font-specification:'Linux Libertine O Bold Italic';shape-padding:20.153"
         transform="translate(-961.48481,-82.951421)"
         aria-label="VİKİ abidələri">
        <path
           style="font-style:normal;-inkscape-font-specification:'Linux Libertine O Bold'"
           d="m 960.71792,170.26555 c 4.608,-11.52 10.752,-12.864 19.2,-13.44 1.152,-1.152 1.152,-5.376 0,-6.528 -5.76,0.192 -12.096,0.384 -18.048,0.384 -7.872,0 -18.432,-0.192 -25.536,-0.384 -1.152,1.152 -1.152,5.376 0,6.528 7.296,0.576 15.936,1.92 13.248,9.024 l -26.496,68.352 -3.264,7.488 -2.88,-8.64 -23.808,-68.544 c -2.304,-6.144 4.992,-7.104 14.208,-7.68 1.152,-1.152 1.152,-5.376 0,-6.528 -7.104,0.192 -26.304,0.384 -33.792,0.384 -7.872,0 -18.624,-0.192 -25.728,-0.384 -1.152,1.152 -1.152,5.376 0,6.528 7.488,0.768 13.824,1.728 17.28,10.368 l 41.856,105.216 c 1.152,3.264 3.648,4.416 6.336,4.416 2.688,0 4.992,-0.768 6.528,-4.416 z m 43.58418,-43.776 c 0,6.528 5.376,11.904 11.904,11.904 6.528,0 11.904,-5.376 11.904,-11.904 0,-6.528 -5.376,-11.904 -11.904,-11.904 -6.528,0 -11.904,5.376 -11.904,11.904 z m -1.344,47.616 v 76.992 c 0,15.936 -5.37603,16.704 -15.93603,17.28 -1.92,1.152 -1.92,5.376 0,6.528 7.68,-0.192 21.88803,-0.384 29.56803,-0.384 7.68,0 21.504,0.192 29.184,0.384 1.92,-1.152 1.92,-5.376 0,-6.528 -10.56,-0.576 -15.936,-1.344 -15.936,-17.28 v -76.992 c 0,-15.936 5.376,-16.704 15.936,-17.28 1.92,-1.152 1.92,-5.376 0,-6.528 -7.68,0.192 -21.504,0.384 -29.184,0.384 -7.68,0 -21.88803,-0.192 -29.56803,-0.384 -1.92,1.152 -1.92,5.376 0,6.528 10.56,0.576 15.93603,1.344 15.93603,17.28 z m 69.3121,0 v 76.992 c 0,15.936 -5.376,16.704 -15.936,17.28 -1.92,1.152 -1.92,5.376 0,6.528 7.68,-0.192 21.888,-0.384 29.568,-0.384 7.68,0 21.504,0.192 29.184,0.384 1.92,-1.152 1.92,-5.376 0,-6.528 -10.56,-0.576 -15.936,-1.344 -15.936,-17.28 v -37.632 c 5.76,1.344 8.448,4.032 12.48,9.024 l 28.992,37.824 c 3.84,4.992 6.528,10.368 6.912,13.44 0,0.576 0.192,1.152 0.96,1.152 3.84,-0.192 14.016,-0.384 19.776,-0.384 7.488,0 15.168,0.192 22.656,0.384 1.152,-1.152 1.152,-5.376 0,-6.528 -5.76,-0.768 -10.176,-2.112 -14.976,-8.064 l -42.048,-49.728 c -3.456,-3.84 -5.76,-7.104 -5.76,-8.64 0,-1.344 0.192,-3.648 2.304,-5.568 l 20.928,-18.624 c 11.136,-9.984 21.888,-19.2 33.408,-20.928 1.152,-1.152 1.152,-5.376 0,-6.528 -4.8,0.192 -11.712,0.384 -18.24,0.384 -7.68,0 -16.512,-0.192 -23.616,-0.384 -1.152,1.152 -1.152,5.376 0,6.528 11.136,1.152 10.56,7.104 0.96,16.896 -6.144,6.144 -20.544,18.24 -20.544,18.24 -12.672,11.136 -17.856,14.976 -24.192,17.088 v -34.944 c 0,-15.936 5.376,-16.704 15.936,-17.28 1.92,-1.152 1.92,-5.376 0,-6.528 -7.68,0.192 -21.504,0.384 -29.184,0.384 -7.68,0 -21.888,-0.192 -29.568,-0.384 -1.92,1.152 -1.92,5.376 0,6.528 10.56,0.576 15.936,1.344 15.936,17.28 z m 143.808,-47.616 c 0,6.528 5.376,11.904 11.904,11.904 6.528,0 11.904,-5.376 11.904,-11.904 0,-6.528 -5.376,-11.904 -11.904,-11.904 -6.528,0 -11.904,5.376 -11.904,11.904 z m -1.344,47.616 v 76.992 c 0,15.936 -5.376,16.704 -15.936,17.28 -1.92,1.152 -1.92,5.376 0,6.528 7.68,-0.192 21.888,-0.384 29.568,-0.384 7.68,0 21.504,0.192 29.184,0.384 1.92,-1.152 1.92,-5.376 0,-6.528 -10.56,-0.576 -15.936,-1.344 -15.936,-17.28 v -76.992 c 0,-15.936 5.376,-16.704 15.936,-17.28 1.92,-1.152 1.92,-5.376 0,-6.528 -7.68,0.192 -21.504,0.384 -29.184,0.384 -7.68,0 -21.888,-0.192 -29.568,-0.384 -1.92,1.152 -1.92,5.376 0,6.528 10.56,0.576 15.936,1.344 15.936,17.28 z"
           id="path14" />
        <path
           style="font-style:normal;font-family:Arial;-inkscape-font-specification:'Arial Bold'"
           d="m 1344.7791,205.33405 -23.9063,-4.3125 q 4.0313,-14.4375 13.875,-21.375 9.8438,-6.9375 29.25,-6.9375 17.625,0 26.25,4.21875 8.625,4.125 12.0938,10.59375 3.5625,6.375 3.5625,23.53125 l -0.2813,30.75 q 0,13.125 1.2188,19.40625 1.3125,6.1875 4.7812,13.3125 h -26.0625 q -1.0312,-2.625 -2.5312,-7.78125 -0.6563,-2.34375 -0.9375,-3.09375 -6.75,6.5625 -14.4375,9.84375 -7.6875,3.28125 -16.4063,3.28125 -15.375,0 -24.2812,-8.34375 -8.8125,-8.34375 -8.8125,-21.09375 0,-8.4375 4.0312,-15 4.0313,-6.65625 11.25,-10.125 7.3125,-3.5625 21,-6.1875 18.4688,-3.46875 25.5938,-6.46875 v -2.625 q 0,-7.59375 -3.75,-10.78125 -3.75,-3.28125 -14.1563,-3.28125 -7.0312,0 -10.9687,2.8125 -3.9375,2.71875 -6.375,9.65625 z m 35.25,21.375 q -5.0625,1.6875 -16.0313,4.03125 -10.9687,2.34375 -14.3437,4.59375 -5.1563,3.65625 -5.1563,9.28125 0,5.53125 4.125,9.5625 4.125,4.03125 10.5,4.03125 7.125,0 13.5938,-4.6875 4.7812,-3.5625 6.2812,-8.71875 1.0313,-3.375 1.0313,-12.84375 z m 50.7187,47.8125 v -137.4375 h 26.3438 v 49.5 q 12.1875,-13.875 28.875,-13.875 18.1875,0 30.0937,13.21875 11.9063,13.125 11.9063,37.78125 0,25.5 -12.1875,39.28125 -12.0938,13.78125 -29.4375,13.78125 -8.5313,0 -16.875,-4.21875 -8.25,-4.3125 -14.25,-12.65625 v 14.625 z m 26.1563,-51.9375 q 0,15.46875 4.875,22.875 6.8437,10.5 18.1875,10.5 8.7187,0 14.8125,-7.40625 6.1875,-7.5 6.1875,-23.53125 0,-17.0625 -6.1875,-24.5625 -6.1875,-7.59375 -15.8438,-7.59375 -9.4687,0 -15.75,7.40625 -6.2812,7.3125 -6.2812,22.3125 z m 92.25,-61.125 v -24.375 h 26.3437 v 24.375 z m 0,113.0625 v -99.5625 h 26.3437 v 99.5625 z m 144.6562,0 h -24.4687 v -14.625 q -6.0938,8.53125 -14.4375,12.75 -8.25,4.125 -16.6875,4.125 -17.1563,0 -29.4375,-13.78125 -12.1875,-13.875 -12.1875,-38.625 0,-25.3125 11.9062,-38.4375 11.9063,-13.21875 30.0938,-13.21875 16.6875,0 28.875,13.875 v -49.5 h 26.3437 z m -70.3125,-51.9375 q 0,15.9375 4.4063,23.0625 6.375,10.3125 17.8125,10.3125 9.0937,0 15.4687,-7.6875 6.375,-7.78125 6.375,-23.15625 0,-17.15625 -6.1875,-24.65625 -6.1875,-7.59375 -15.8437,-7.59375 -9.375,0 -15.75,7.5 -6.2813,7.40625 -6.2813,22.21875 z m 183.0938,1.40625 q 0,22.40625 -11.3438,36.9375 -12.4687,15.84375 -34.3125,15.84375 -25.3125,0 -37.4062,-17.8125 -10.4063,-15.375 -9.9375,-41.8125 h 66 q -0.2813,-10.59375 -5.5313,-17.34375 -5.8125,-7.40625 -16.0312,-7.40625 -12.6563,0 -16.7813,14.25 l -26.25,-4.40625 q 10.3125,-29.53125 43.3125,-29.53125 26.0625,0 38.4375,16.96875 9.8438,13.5 9.8438,34.3125 z m -27.4688,9.28125 h -39.375 q 0.2813,9.75 4.875,16.125 5.3438,7.21875 14.7188,7.21875 9.5625,0 14.9062,-7.125 4.9688,-6.375 4.875,-16.21875 z m 47.4375,41.25 v -137.4375 h 26.3438 v 137.4375 z m 140.1563,-50.53125 q 0,22.40625 -11.3438,36.9375 -12.4687,15.84375 -34.3125,15.84375 -25.3125,0 -37.4062,-17.8125 -10.4063,-15.375 -9.9375,-41.8125 h 66 q -0.2813,-10.59375 -5.5313,-17.34375 -5.8125,-7.40625 -16.0312,-7.40625 -12.6563,0 -16.7813,14.25 l -26.25,-4.40625 q 10.3125,-29.53125 43.3125,-29.53125 26.0625,0 38.4375,16.96875 9.8438,13.5 9.8438,34.3125 z m -27.4688,9.28125 h -39.375 q 0.2813,9.75 4.875,16.125 5.3438,7.21875 14.7188,7.21875 9.5625,0 14.9062,-7.125 4.9688,-6.375 4.875,-16.21875 z m 72.6563,41.25 h -26.3438 v -99.5625 h 24.4688 v 14.15625 q 6.2812,-10.03125 11.25,-13.21875 5.0625,-3.1875 11.4375,-3.1875 9,0 17.3437,4.96875 l -8.1562,22.96875 q -6.6563,-4.3125 -12.375,-4.3125 -5.5313,0 -9.375,3.09375 -3.8438,3 -6.0938,10.96875 -2.1562,7.96875 -2.1562,33.375 z m 49.5,-113.0625 v -24.375 h 26.3437 v 24.375 z m 0,113.0625 v -99.5625 h 26.3437 v 99.5625 z"
           id="path15" />
      </g>
      <text
         xml:space="preserve"
         style="font-style:italic;font-variant:normal;font-weight:bold;font-stretch:normal;font-size:192px;font-family:'Linux Libertine O';-inkscape-font-specification:'Linux Libertine O Bold Italic';text-align:start;writing-mode:lr-tb;direction:ltr;text-anchor:start;fill:#8f0000"
         x="269.81396"
         y="142.77609"
         id="text5"><tspan
           sodipodi:role="line"
           id="tspan3"
           x="269.81396"
           y="142.77609" /></text>
    </g>
  </g>
</svg>
